<svg xmlns="http://www.w3.org/2000/svg" viewBox="0 0 49 49" shape-rendering="crispEdges" role="img" aria-label="MoMo QR code"><rect width="49" height="49" fill="#fff"/><path fill="#000" d="M0 0h7v1H0zM8 0h1v1H8zM10 0h5v1H10zM16 0h2v1H16zM19 0h3v1H19zM23 0h2v1H23zM27 0h4v1H27zM32 0h1v1H32zM34 0h1v1H34zM40 0h1v1H40zM42 0h7v1H42zM0 1h1v1H0zM6 1h1v1H6zM8 1h4v1H8zM13 1h1v1H13zM16 1h1v1H16zM19 1h3v1H19zM23 1h1v1H23zM25 1h1v1H25zM29 1h1v1H29zM31 1h1v1H31zM34 1h1v1H34zM36 1h5v1H36zM42 1h1v1H42zM48 1h1v1H48zM0 2h1v1H0zM2 2h3v1H2zM6 2h1v1H6zM10 2h2v1H10zM13 2h1v1H13zM16 2h1v1H16zM19 2h1v1H19zM22 2h2v1H22zM28 2h1v1H28zM30 2h1v1H30zM33 2h1v1H33zM35 2h2v1H35zM39 2h2v1H39zM42 2h1v1H42zM44 2h3v1H44zM48 2h1v1H48zM0 3h1v1H0zM2 3h3v1H2zM6 3h1v1H6zM8 3h1v1H8zM11 3h1v1H11zM14 3h2v1H14zM18 3h2v1H18zM21 3h2v1H21zM24 3h2v1H24zM27 3h1v1H27zM30 3h4v1H30zM39 3h1v1H39zM42 3h1v1H42zM44 3h3v1H44zM48 3h1v1H48zM0 4h1v1H0zM2 4h3v1H2zM6 4h1v1H6zM8 4h1v1H8zM11 4h1v1H11zM17 4h4v1H17zM22 4h5v1H22zM28 4h2v1H28zM34 4h1v1H34zM36 4h2v1H36zM42 4h1v1H42zM44 4h3v1H44zM48 4h1v1H48zM0 5h1v1H0zM6 5h1v1H6zM8 5h1v1H8zM13 5h3v1H13zM17 5h2v1H17zM21 5h2v1H21zM26 5h2v1H26zM30 5h2v1H30zM33 5h1v1H33zM38 5h1v1H38zM42 5h1v1H42zM48 5h1v1H48zM0 6h7v1H0zM8 6h1v1H8zM10 6h1v1H10zM12 6h1v1H12zM14 6h1v1H14zM16 6h1v1H16zM18 6h1v1H18zM20 6h1v1H20zM22 6h1v1H22zM24 6h1v1H24zM26 6h1v1H26zM28 6h1v1H28zM30 6h1v1H30zM32 6h1v1H32zM34 6h1v1H34zM36 6h1v1H36zM38 6h1v1H38zM40 6h1v1H40zM42 6h7v1H42zM9 7h1v1H9zM11 7h3v1H11zM15 7h3v1H15zM19 7h1v1H19zM22 7h1v1H22zM26 7h1v1H26zM28 7h3v1H28zM33 7h1v1H33zM35 7h1v1H35zM38 7h1v1H38zM3 8h1v1H3zM6 8h1v1H6zM11 8h1v1H11zM13 8h3v1H13zM17 8h1v1H17zM19 8h9v1H19zM30 8h2v1H30zM33 8h1v1H33zM37 8h2v1H37zM43 8h3v1H43zM47 8h2v1H47zM1 9h3v1H1zM5 9h1v1H5zM9 9h1v1H9zM12 9h1v1H12zM14 9h2v1H14zM19 9h1v1H19zM22 9h3v1H22zM26 9h3v1H26zM30 9h1v1H30zM32 9h1v1H32zM34 9h4v1H34zM43 9h2v1H43zM46 9h1v1H46zM1 10h1v1H1zM3 10h4v1H3zM12 10h2v1H12zM15 10h1v1H15zM22 10h2v1H22zM25 10h5v1H25zM32 10h1v1H32zM35 10h1v1H35zM39 10h1v1H39zM46 10h1v1H46zM2 11h1v1H2zM4 11h1v1H4zM8 11h1v1H8zM12 11h1v1H12zM19 11h4v1H19zM24 11h1v1H24zM26 11h1v1H26zM30 11h1v1H30zM32 11h1v1H32zM36 11h2v1H36zM39 11h1v1H39zM41 11h1v1H41zM43 11h6v1H43zM0 12h2v1H0zM3 12h1v1H3zM6 12h1v1H6zM8 12h1v1H8zM10 12h1v1H10zM12 12h2v1H12zM15 12h2v1H15zM18 12h1v1H18zM21 12h5v1H21zM28 12h2v1H28zM31 12h1v1H31zM34 12h1v1H34zM36 12h5v1H36zM42 12h3v1H42zM46 12h1v1H46zM3 13h1v1H3zM7 13h1v1H7zM11 13h3v1H11zM17 13h1v1H17zM23 13h1v1H23zM25 13h1v1H25zM31 13h1v1H31zM33 13h1v1H33zM35 13h1v1H35zM39 13h2v1H39zM44 13h5v1H44zM0 14h1v1H0zM3 14h1v1H3zM5 14h2v1H5zM8 14h1v1H8zM11 14h3v1H11zM15 14h2v1H15zM18 14h1v1H18zM20 14h3v1H20zM24 14h2v1H24zM27 14h5v1H27zM35 14h4v1H35zM40 14h1v1H40zM42 14h1v1H42zM45 14h4v1H45zM2 15h4v1H2zM9 15h1v1H9zM11 15h4v1H11zM17 15h2v1H17zM20 15h1v1H20zM22 15h2v1H22zM25 15h2v1H25zM29 15h1v1H29zM31 15h3v1H31zM36 15h2v1H36zM39 15h2v1H39zM42 15h1v1H42zM44 15h2v1H44zM48 15h1v1H48zM5 16h3v1H5zM9 16h4v1H9zM14 16h2v1H14zM20 16h3v1H20zM25 16h1v1H25zM27 16h2v1H27zM30 16h1v1H30zM32 16h2v1H32zM35 16h2v1H35zM38 16h1v1H38zM43 16h3v1H43zM47 16h2v1H47zM1 17h2v1H1zM8 17h1v1H8zM10 17h1v1H10zM12 17h1v1H12zM17 17h3v1H17zM21 17h1v1H21zM27 17h3v1H27zM31 17h1v1H31zM33 17h1v1H33zM37 17h2v1H37zM40 17h6v1H40zM0 18h1v1H0zM2 18h1v1H2zM6 18h1v1H6zM8 18h1v1H8zM11 18h1v1H11zM16 18h3v1H16zM20 18h1v1H20zM22 18h4v1H22zM28 18h3v1H28zM33 18h2v1H33zM37 18h2v1H37zM42 18h1v1H42zM44 18h1v1H44zM46 18h1v1H46zM48 18h1v1H48zM7 19h1v1H7zM9 19h1v1H9zM11 19h1v1H11zM15 19h2v1H15zM19 19h2v1H19zM27 19h1v1H27zM30 19h1v1H30zM33 19h1v1H33zM37 19h1v1H37zM41 19h2v1H41zM45 19h3v1H45zM0 20h2v1H0zM3 20h1v1H3zM5 20h3v1H5zM9 20h1v1H9zM12 20h4v1H12zM17 20h1v1H17zM19 20h1v1H19zM28 20h1v1H28zM35 20h2v1H35zM38 20h2v1H38zM41 20h1v1H41zM46 20h3v1H46zM4 21h2v1H4zM8 21h1v1H8zM10 21h3v1H10zM16 21h1v1H16zM18 21h2v1H18zM33 21h1v1H33zM36 21h1v1H36zM41 21h1v1H41zM43 21h1v1H43zM45 21h1v1H45zM47 21h1v1H47zM1 22h8v1H1zM10 22h2v1H10zM13 22h3v1H13zM17 22h2v1H17zM33 22h1v1H33zM36 22h3v1H36zM40 22h5v1H40zM48 22h1v1H48zM0 23h5v1H0zM8 23h2v1H8zM11 23h2v1H11zM14 23h1v1H14zM17 23h1v1H17zM23 23h1v1H23zM30 23h3v1H30zM36 23h1v1H36zM39 23h2v1H39zM44 23h2v1H44zM47 23h1v1H47zM1 24h4v1H1zM6 24h1v1H6zM8 24h2v1H8zM16 24h1v1H16zM18 24h1v1H18zM21 24h1v1H21zM30 24h2v1H30zM33 24h1v1H33zM35 24h2v1H35zM38 24h3v1H38zM42 24h1v1H42zM44 24h1v1H44zM47 24h2v1H47zM0 25h1v1H0zM4 25h1v1H4zM8 25h1v1H8zM15 25h4v1H15zM21 25h1v1H21zM30 25h1v1H30zM32 25h1v1H32zM34 25h2v1H34zM37 25h1v1H37zM39 25h2v1H39zM44 25h4v1H44zM0 26h1v1H0zM3 26h6v1H3zM13 26h2v1H13zM31 26h5v1H31zM38 26h7v1H38zM0 27h1v1H0zM2 27h3v1H2zM7 27h1v1H7zM9 27h1v1H9zM13 27h1v1H13zM17 27h1v1H17zM29 27h2v1H29zM33 27h1v1H33zM35 27h1v1H35zM39 27h2v1H39zM42 27h1v1H42zM45 27h1v1H45zM47 27h2v1H47zM0 28h1v1H0zM2 28h3v1H2zM6 28h1v1H6zM8 28h1v1H8zM10 28h3v1H10zM30 28h3v1H30zM36 28h2v1H36zM42 28h1v1H42zM44 28h2v1H44zM47 28h1v1H47zM1 29h2v1H1zM4 29h1v1H4zM8 29h1v1H8zM12 29h1v1H12zM14 29h1v1H14zM17 29h3v1H17zM27 29h2v1H27zM30 29h1v1H30zM32 29h2v1H32zM35 29h1v1H35zM37 29h3v1H37zM41 29h1v1H41zM43 29h3v1H43zM47 29h1v1H47zM0 30h4v1H0zM5 30h2v1H5zM10 30h1v1H10zM12 30h1v1H12zM16 30h1v1H16zM18 30h1v1H18zM20 30h1v1H20zM22 30h1v1H22zM24 30h2v1H24zM28 30h2v1H28zM32 30h1v1H32zM34 30h1v1H34zM36 30h1v1H36zM38 30h3v1H38zM43 30h2v1H43zM48 30h1v1H48zM2 31h1v1H2zM5 31h1v1H5zM8 31h1v1H8zM10 31h1v1H10zM13 31h1v1H13zM17 31h2v1H17zM21 31h2v1H21zM26 31h1v1H26zM30 31h2v1H30zM34 31h1v1H34zM39 31h1v1H39zM47 31h1v1H47zM3 32h1v1H3zM5 32h2v1H5zM13 32h1v1H13zM18 32h2v1H18zM21 32h1v1H21zM26 32h2v1H26zM30 32h1v1H30zM34 32h3v1H34zM38 32h4v1H38zM44 32h5v1H44zM0 33h1v1H0zM4 33h1v1H4zM8 33h3v1H8zM12 33h2v1H12zM15 33h3v1H15zM19 33h1v1H19zM21 33h2v1H21zM25 33h1v1H25zM29 33h2v1H29zM34 33h1v1H34zM37 33h2v1H37zM47 33h1v1H47zM1 34h3v1H1zM6 34h1v1H6zM10 34h1v1H10zM15 34h1v1H15zM17 34h1v1H17zM19 34h1v1H19zM22 34h3v1H22zM30 34h3v1H30zM34 34h1v1H34zM36 34h2v1H36zM39 34h5v1H39zM1 35h1v1H1zM4 35h2v1H4zM7 35h1v1H7zM9 35h1v1H9zM12 35h1v1H12zM14 35h5v1H14zM20 35h1v1H20zM22 35h1v1H22zM24 35h3v1H24zM29 35h4v1H29zM34 35h1v1H34zM37 35h3v1H37zM41 35h1v1H41zM45 35h1v1H45zM47 35h1v1H47zM1 36h1v1H1zM5 36h3v1H5zM9 36h4v1H9zM14 36h1v1H14zM16 36h1v1H16zM27 36h1v1H27zM29 36h1v1H29zM31 36h1v1H31zM35 36h2v1H35zM38 36h1v1H38zM40 36h1v1H40zM42 36h3v1H42zM46 36h2v1H46zM0 37h5v1H0zM9 37h1v1H9zM13 37h5v1H13zM23 37h4v1H23zM28 37h1v1H28zM30 37h1v1H30zM32 37h6v1H32zM39 37h3v1H39zM47 37h2v1H47zM1 38h1v1H1zM5 38h2v1H5zM8 38h7v1H8zM17 38h2v1H17zM20 38h3v1H20zM27 38h1v1H27zM29 38h1v1H29zM31 38h2v1H31zM34 38h4v1H34zM41 38h1v1H41zM48 38h1v1H48zM1 39h3v1H1zM7 39h2v1H7zM10 39h1v1H10zM12 39h1v1H12zM14 39h1v1H14zM17 39h7v1H17zM27 39h2v1H27zM32 39h1v1H32zM34 39h2v1H34zM38 39h4v1H38zM43 39h1v1H43zM46 39h1v1H46zM0 40h3v1H0zM6 40h1v1H6zM8 40h1v1H8zM14 40h3v1H14zM18 40h1v1H18zM22 40h7v1H22zM30 40h2v1H30zM34 40h1v1H34zM37 40h1v1H37zM39 40h6v1H39zM47 40h1v1H47zM8 41h1v1H8zM11 41h1v1H11zM13 41h1v1H13zM15 41h3v1H15zM21 41h2v1H21zM26 41h1v1H26zM30 41h3v1H30zM34 41h3v1H34zM39 41h2v1H39zM44 41h2v1H44zM0 42h7v1H0zM11 42h1v1H11zM13 42h1v1H13zM15 42h3v1H15zM20 42h1v1H20zM22 42h1v1H22zM24 42h1v1H24zM26 42h1v1H26zM28 42h2v1H28zM34 42h1v1H34zM36 42h1v1H36zM38 42h1v1H38zM40 42h1v1H40zM42 42h1v1H42zM44 42h2v1H44zM48 42h1v1H48zM0 43h1v1H0zM6 43h1v1H6zM10 43h1v1H10zM12 43h5v1H12zM19 43h4v1H19zM26 43h6v1H26zM33 43h4v1H33zM40 43h1v1H40zM44 43h4v1H44zM0 44h1v1H0zM2 44h3v1H2zM6 44h1v1H6zM9 44h5v1H9zM15 44h1v1H15zM18 44h3v1H18zM22 44h5v1H22zM28 44h1v1H28zM30 44h1v1H30zM32 44h1v1H32zM34 44h3v1H34zM40 44h5v1H40zM48 44h1v1H48zM0 45h1v1H0zM2 45h3v1H2zM6 45h1v1H6zM8 45h3v1H8zM13 45h1v1H13zM16 45h2v1H16zM19 45h1v1H19zM25 45h2v1H25zM28 45h2v1H28zM31 45h1v1H31zM33 45h2v1H33zM41 45h3v1H41zM46 45h2v1H46zM0 46h1v1H0zM2 46h3v1H2zM6 46h1v1H6zM9 46h1v1H9zM11 46h1v1H11zM13 46h1v1H13zM16 46h2v1H16zM23 46h1v1H23zM25 46h6v1H25zM34 46h3v1H34zM38 46h1v1H38zM41 46h2v1H41zM44 46h2v1H44zM48 46h1v1H48zM0 47h1v1H0zM6 47h1v1H6zM9 47h1v1H9zM13 47h1v1H13zM15 47h4v1H15zM21 47h2v1H21zM24 47h2v1H24zM30 47h4v1H30zM36 47h3v1H36zM41 47h1v1H41zM43 47h2v1H43zM47 47h1v1H47zM0 48h7v1H0zM9 48h3v1H9zM13 48h1v1H13zM17 48h2v1H17zM20 48h2v1H20zM23 48h2v1H23zM27 48h2v1H27zM33 48h3v1H33zM37 48h1v1H37zM40 48h1v1H40zM42 48h1v1H42zM44 48h2v1H44zM48 48h1v1H48z"/></svg>
